<?xml version="1.0" encoding="utf-8"?><svg version="1.1" id="Layer_1" xmlns="http://www.w3.org/2000/svg" xmlns:xlink="http://www.w3.org/1999/xlink" x="0px" y="0px" viewBox="0 0 122.88 84.86" style="enable-background:new 0 0 122.88 84.86" xml:space="preserve"><style type="text/css">.st0{fill-rule:evenodd;clip-rule:evenodd;}</style><g><path class="st0" d="M64.6,55.59l0.14-0.2c0.78-1.11,2.32-1.38,3.42-0.6L87.1,68.04c1.11,0.78,1.38,2.31,0.6,3.42l-0.14,0.2 c-0.78,1.11-2.32,1.38-3.42,0.6L65.2,59.01C64.09,58.24,63.82,56.7,64.6,55.59L64.6,55.59z M0,34.49v50.36h14.6V35.13 c3.65-17.86,13.94-22.73,27.72-20.74c-6.21,10.81-5.4,21.8,3.39,33.01c-1.12,1.83-1.03,3.81,0.21,5.93l2.75,3.17 c1.1,1.12,2.47,1.21,4.23-0.21l42.11-42.53c1.14-1.37,0.91-2.56-0.42-3.6c-2.98-3.66-3.36-4.29-8.68-3.39 C74.11-0.91,62.86-2.28,52.27,3.81C25.7-7.11,3.07,6.61,0,34.49L0,34.49z M88.42,35.12l0.14-0.2c0.78-1.11,2.31-1.38,3.42-0.6 l18.94,13.26c1.11,0.78,1.38,2.32,0.6,3.42l-0.14,0.2c-0.78,1.11-2.31,1.38-3.42,0.6L89.03,38.54 C87.92,37.76,87.65,36.22,88.42,35.12L88.42,35.12z M99.33,24.16l0.14-0.2c0.78-1.11,2.32-1.38,3.42-0.6l18.94,13.26 c1.11,0.78,1.38,2.32,0.6,3.42l-0.14,0.2c-0.78,1.11-2.32,1.38-3.42,0.6L99.93,27.58C98.83,26.8,98.55,25.26,99.33,24.16 L99.33,24.16z M77.58,45.72l0.14-0.2c0.78-1.11,2.32-1.38,3.42-0.6l18.94,13.26c1.11,0.78,1.38,2.31,0.61,3.42l-0.14,0.2 c-0.78,1.11-2.32,1.38-3.42,0.6L78.18,49.14C77.08,48.36,76.81,46.83,77.58,45.72L77.58,45.72z"/></g></svg>