<svg xmlns="http://www.w3.org/2000/svg" xmlns:xlink="http://www.w3.org/1999/xlink" width="500" zoomAndPan="magnify" viewBox="0 0 375 374.999991" height="500" preserveAspectRatio="xMidYMid meet" version="1.0"><defs><g/><clipPath id="732ae488f7"><path d="M 120.109375 97.777344 L 255 97.777344 L 255 188.527344 L 120.109375 188.527344 Z M 120.109375 97.777344 " clip-rule="nonzero"/></clipPath><clipPath id="b0b68310eb"><path d="M 194 194 L 296.871094 194 L 296.871094 198 L 194 198 Z M 194 194 " clip-rule="nonzero"/></clipPath><clipPath id="10c7f33024"><path d="M 182 190.964844 L 193 190.964844 L 193 200.714844 L 182 200.714844 Z M 182 190.964844 " clip-rule="nonzero"/></clipPath><clipPath id="a360e86fef"><path d="M 194 251 L 296.871094 251 L 296.871094 254 L 194 254 Z M 194 251 " clip-rule="nonzero"/></clipPath><clipPath id="576ed24e30"><path d="M 182 247.183594 L 193 247.183594 L 193 256.933594 L 182 256.933594 Z M 182 247.183594 " clip-rule="nonzero"/></clipPath></defs><g clip-path="url(#732ae488f7)"><path fill="#eeba2b" d="M 183.269531 97.808594 L 183.269531 98.777344 L 186.4375 102.902344 L 186.4375 104.484375 L 181.347656 101.929688 L 180.390625 101.929688 L 180.390625 108.644531 L 181.347656 108.644531 L 186.4375 106.390625 L 186.4375 110.222656 C 182.925781 110.617188 180.226562 112.945312 180.226562 115.761719 C 180.226562 118.851562 183.476562 121.363281 187.488281 121.363281 C 191.5 121.363281 194.761719 118.851562 194.761719 115.761719 C 194.761719 113.035156 192.234375 110.773438 188.886719 110.273438 L 188.886719 106.660156 L 193.949219 108.902344 L 194.851562 108.902344 L 194.851562 102.542969 L 193.949219 102.542969 L 188.886719 105.082031 L 188.886719 102.902344 L 192.054688 98.777344 L 192.054688 97.808594 Z M 186.4375 111.617188 L 186.4375 114.957031 C 185.050781 114.773438 183.789062 114.316406 182.726562 113.675781 C 183.503906 112.625 184.84375 111.859375 186.4375 111.621094 Z M 188.886719 111.679688 C 190.484375 112.007812 191.792969 112.871094 192.472656 114.003906 C 191.421875 114.535156 190.195312 114.875 188.886719 114.996094 Z M 173.882812 116.890625 C 172.054688 116.890625 170.574219 118.03125 170.574219 119.4375 C 170.574219 120.84375 172.058594 121.976562 173.882812 121.976562 C 175.707031 121.976562 177.1875 120.84375 177.1875 119.4375 C 177.1875 118.03125 175.707031 116.890625 173.882812 116.890625 Z M 201.109375 116.890625 C 199.285156 116.890625 197.800781 118.03125 197.800781 119.4375 C 197.800781 120.84375 199.285156 121.976562 201.109375 121.976562 C 202.933594 121.976562 204.414062 120.84375 204.414062 119.4375 C 204.414062 118.03125 202.933594 116.890625 201.109375 116.890625 Z M 186.171875 117.488281 C 188.089844 117.488281 189.855469 117.988281 191.269531 118.824219 C 190.285156 119.542969 188.953125 119.980469 187.488281 119.980469 C 185.539062 119.980469 183.824219 119.195312 182.851562 118.011719 C 183.871094 117.675781 184.996094 117.488281 186.171875 117.488281 Z M 165.164062 118.617188 C 163.484375 118.617188 162.125 119.667969 162.125 120.960938 C 162.125 122.253906 163.484375 123.304688 165.164062 123.304688 C 166.84375 123.304688 168.207031 122.253906 168.207031 120.960938 C 168.207031 119.667969 166.84375 118.617188 165.164062 118.617188 Z M 209.824219 118.617188 C 208.144531 118.617188 206.785156 119.667969 206.785156 120.960938 C 206.785156 122.253906 208.144531 123.304688 209.824219 123.304688 C 211.503906 123.304688 212.867188 122.253906 212.867188 120.960938 C 212.867188 119.667969 211.503906 118.617188 209.824219 118.617188 Z M 157.234375 121.523438 C 155.738281 121.523438 154.527344 122.453125 154.527344 123.605469 C 154.527344 124.757812 155.738281 125.699219 157.234375 125.699219 C 158.730469 125.699219 159.9375 124.757812 159.9375 123.605469 C 159.9375 122.453125 158.730469 121.523438 157.234375 121.523438 Z M 217.753906 121.523438 C 216.257812 121.523438 215.050781 122.453125 215.050781 123.605469 C 215.050781 124.757812 216.257812 125.699219 217.753906 125.699219 C 219.25 125.699219 220.460938 124.757812 220.460938 123.605469 C 220.460938 122.453125 219.25 121.523438 217.753906 121.523438 Z M 178.171875 122.339844 L 176.945312 122.484375 C 166.574219 123.6875 156.839844 126.832031 149.105469 130.140625 C 141.371094 133.453125 135.695312 136.875 133.199219 138.949219 L 135.554688 140.632812 C 137.566406 138.960938 143.191406 135.511719 150.679688 132.304688 C 157.847656 129.234375 166.796875 126.351562 176.195312 125.109375 C 177.570312 127.484375 178.875 129.675781 180.230469 135.039062 L 183.386719 135.039062 C 181.820312 128.839844 180.171875 125.875 178.65625 123.214844 Z M 196.820312 122.339844 L 196.332031 123.214844 C 194.816406 125.878906 193.171875 128.839844 191.605469 135.039062 L 194.761719 135.039062 C 196.117188 129.675781 197.421875 127.484375 198.796875 125.109375 C 208.191406 126.351562 217.140625 129.234375 224.308594 132.304688 C 231.796875 135.511719 237.421875 138.960938 239.433594 140.632812 L 241.792969 138.949219 C 239.292969 136.875 233.617188 133.453125 225.882812 130.140625 C 218.148438 126.832031 208.417969 123.6875 198.042969 122.484375 L 196.816406 122.339844 Z M 187.488281 122.511719 C 185.957031 122.511719 184.714844 123.46875 184.714844 124.648438 C 184.714844 125.828125 185.957031 126.785156 187.488281 126.785156 C 189.019531 126.785156 190.261719 125.828125 190.261719 124.648438 C 190.261719 123.46875 189.019531 122.511719 187.488281 122.511719 Z M 150.226562 124.21875 C 148.839844 124.21875 147.71875 125.085938 147.71875 126.152344 C 147.71875 127.21875 148.839844 128.085938 150.226562 128.085938 C 151.613281 128.085938 152.746094 127.21875 152.746094 126.152344 C 152.746094 125.085938 151.613281 124.21875 150.226562 124.21875 Z M 224.761719 124.21875 C 223.375 124.21875 222.242188 125.085938 222.242188 126.152344 C 222.242188 127.21875 223.375 128.085938 224.761719 128.085938 C 226.148438 128.085938 227.269531 127.21875 227.269531 126.152344 C 227.269531 125.085938 226.148438 124.21875 224.761719 124.21875 Z M 143.09375 127.675781 C 141.78125 127.675781 140.722656 128.5 140.722656 129.507812 C 140.722656 130.523438 141.78125 131.34375 143.09375 131.34375 C 144.40625 131.34375 145.476562 130.523438 145.476562 129.507812 C 145.476562 128.5 144.40625 127.675781 143.09375 127.675781 Z M 231.894531 127.675781 C 230.582031 127.675781 229.515625 128.5 229.515625 129.507812 C 229.515625 130.523438 230.582031 131.34375 231.894531 131.34375 C 233.210938 131.34375 234.265625 130.523438 234.265625 129.507812 C 234.265625 128.5 233.210938 127.675781 231.894531 127.675781 Z M 187.488281 127.960938 C 186.175781 127.960938 185.121094 128.785156 185.121094 129.792969 C 185.121094 130.804688 186.175781 131.621094 187.488281 131.621094 C 188.800781 131.621094 189.871094 130.804688 189.871094 129.792969 C 189.871094 128.785156 188.800781 127.960938 187.488281 127.960938 Z M 136.757812 131.34375 C 135.589844 131.34375 134.644531 132.074219 134.644531 132.972656 C 134.644531 133.875 135.589844 134.605469 136.757812 134.605469 C 137.925781 134.605469 138.875 133.875 138.875 132.972656 C 138.875 132.074219 137.925781 131.34375 136.757812 131.34375 Z M 238.230469 131.34375 C 237.0625 131.34375 236.113281 132.074219 236.113281 132.972656 C 236.113281 133.875 237.0625 134.605469 238.230469 134.605469 C 239.398438 134.605469 240.347656 133.875 240.347656 132.972656 C 240.347656 132.074219 239.398438 131.34375 238.230469 131.34375 Z M 153.140625 131.753906 C 150.082031 135.40625 150.210938 140.109375 152.074219 145.386719 C 137.878906 140.734375 132.992188 154.757812 143.75 159.023438 C 142.929688 155.617188 143.71875 151.988281 148.515625 151.59375 C 151.082031 151.386719 154.09375 151.945312 154.457031 155.566406 C 154.710938 158.113281 151.910156 164.199219 143.09375 164.117188 C 137.582031 164.0625 131.703125 162.472656 129.089844 155.671875 C 128.121094 153.140625 128.136719 153.261719 131.371094 154.292969 C 132.636719 154.695312 134.238281 155.535156 136.882812 157.292969 C 136.695312 154.445312 134.910156 147.21875 133.058594 145.085938 C 130.585938 146.429688 130.320312 148.019531 125.65625 149.046875 C 127.316406 146.578125 128.851562 144.058594 131.207031 141.316406 C 126.300781 141.601562 123.347656 142.507812 120.109375 143.046875 C 120.867188 145.472656 121.640625 147.867188 122.746094 149.761719 C 120.316406 153.390625 122.347656 155.019531 124.859375 156.785156 C 125.882812 157.507812 130.503906 167.972656 128.167969 171.542969 C 126.9375 173.425781 127.65625 175.4375 129.359375 176.324219 C 131.261719 177.320312 132.972656 178.597656 134.527344 179.914062 C 136.515625 181.601562 136.050781 181.773438 138.492188 180.742188 C 147.078125 177.105469 165.804688 174.605469 187.5 174.605469 C 209.195312 174.605469 227.917969 177.105469 236.507812 180.742188 C 238.949219 181.773438 238.484375 181.601562 240.472656 179.914062 C 242.027344 178.597656 243.738281 177.320312 245.640625 176.324219 C 247.34375 175.4375 248.0625 173.425781 246.832031 171.542969 C 244.496094 167.972656 249.117188 157.507812 250.136719 156.785156 C 252.652344 155.019531 254.683594 153.390625 252.253906 149.761719 C 253.359375 147.867188 254.132812 145.472656 254.890625 143.046875 C 251.652344 142.507812 248.699219 141.601562 243.792969 141.316406 C 246.148438 144.058594 247.683594 146.578125 249.339844 149.046875 C 244.679688 148.019531 244.414062 146.429688 241.941406 145.085938 C 240.089844 147.21875 238.300781 154.445312 238.117188 157.292969 C 240.761719 155.535156 242.363281 154.695312 243.628906 154.292969 C 246.863281 153.261719 246.878906 153.140625 245.90625 155.671875 C 243.296875 162.472656 237.414062 164.0625 231.90625 164.117188 C 223.089844 164.199219 220.289062 158.113281 220.542969 155.566406 C 220.90625 151.945312 223.917969 151.386719 226.484375 151.59375 C 231.28125 151.988281 232.070312 155.617188 231.246094 159.023438 C 242.007812 154.757812 237.121094 140.734375 222.921875 145.386719 C 224.789062 140.109375 224.917969 135.40625 221.859375 131.753906 C 218.164062 134.613281 213.835938 137.035156 215.257812 144.773438 C 212.585938 143.296875 210.257812 141.808594 207.859375 142.234375 C 204.625 142.808594 201.679688 143.820312 201.121094 147.730469 C 200.726562 150.460938 202.765625 153.0625 205.476562 154.746094 C 205.839844 152.070312 206.484375 149.734375 210.367188 149.664062 C 214.832031 149.578125 215.660156 152.417969 215.523438 154.648438 C 215.339844 157.738281 209.914062 161.363281 202.96875 160.960938 C 196.007812 160.5625 189.976562 155.992188 190.078125 150.453125 C 192.28125 150.863281 195.054688 152.625 196.332031 153.472656 C 196.578125 153.636719 197.4375 153.625 197.6875 153.632812 L 197.6875 142.058594 C 197.363281 142.0625 196.699219 141.992188 196.308594 142.171875 C 194.3125 143.105469 191.941406 146.058594 190.550781 145.796875 C 191.628906 142.402344 194.574219 138.320312 194.644531 136.9375 L 180.355469 136.9375 C 180.425781 138.320312 183.371094 142.402344 184.449219 145.796875 C 183.058594 146.058594 180.6875 143.105469 178.691406 142.171875 C 178.300781 141.992188 177.636719 142.0625 177.316406 142.058594 L 177.316406 153.632812 C 177.5625 153.625 178.421875 153.636719 178.667969 153.472656 C 179.945312 152.625 182.71875 150.863281 184.921875 150.453125 C 185.027344 155.992188 178.992188 160.5625 172.03125 160.960938 C 165.085938 161.363281 159.660156 157.738281 159.476562 154.648438 C 159.34375 152.417969 160.171875 149.578125 164.632812 149.664062 C 168.519531 149.734375 169.160156 152.070312 169.523438 154.746094 C 172.234375 153.0625 174.273438 150.460938 173.882812 147.730469 C 173.320312 143.820312 170.375 142.808594 167.140625 142.234375 C 164.742188 141.808594 162.414062 143.296875 159.742188 144.773438 C 161.164062 137.035156 156.835938 134.613281 153.140625 131.753906 Z M 187.488281 132.796875 C 186.539062 132.796875 185.777344 133.382812 185.777344 134.113281 C 185.777344 134.84375 186.539062 135.441406 187.488281 135.441406 C 188.4375 135.441406 189.210938 134.84375 189.210938 134.113281 C 189.210938 133.382812 188.4375 132.796875 187.488281 132.796875 Z M 131.601562 135.210938 C 130.652344 135.210938 129.878906 135.804688 129.878906 136.535156 C 129.878906 137.265625 130.652344 137.855469 131.601562 137.855469 C 132.550781 137.855469 133.324219 137.265625 133.324219 136.535156 C 133.324219 135.804688 132.550781 135.210938 131.601562 135.210938 Z M 243.382812 135.210938 C 242.4375 135.210938 241.660156 135.804688 241.660156 136.535156 C 241.660156 137.265625 242.4375 137.855469 243.382812 137.855469 C 244.332031 137.855469 245.105469 137.265625 245.105469 136.535156 C 245.105469 135.804688 244.332031 135.210938 243.382812 135.210938 Z M 187.488281 146.734375 C 188.289062 146.734375 188.945312 147.238281 188.945312 147.855469 C 188.945312 148.472656 188.289062 148.976562 187.488281 148.976562 C 186.683594 148.976562 186.042969 148.472656 186.042969 147.855469 C 186.042969 147.238281 186.683594 146.734375 187.488281 146.734375 Z M 124.121094 151.113281 C 124.707031 151.105469 125.414062 151.839844 125.75 152.832031 C 126.109375 153.890625 125.90625 154.84375 125.300781 154.960938 C 124.695312 155.078125 123.914062 154.320312 123.554688 153.261719 C 123.195312 152.203125 123.398438 151.25 124.003906 151.132812 C 124.042969 151.125 124.082031 151.113281 124.121094 151.113281 Z M 250.878906 151.113281 C 250.917969 151.113281 250.957031 151.125 250.992188 151.132812 C 251.597656 151.25 251.804688 152.203125 251.445312 153.261719 C 251.085938 154.320312 250.304688 155.078125 249.699219 154.960938 C 249.09375 154.84375 248.886719 153.890625 249.246094 152.832031 C 249.585938 151.839844 250.292969 151.105469 250.878906 151.113281 Z M 187.488281 162.15625 L 190.898438 166.351562 L 187.488281 170.554688 L 184.074219 166.351562 Z M 173.347656 163.609375 C 174.296875 163.609375 175.070312 164.195312 175.070312 164.925781 C 175.070312 165.65625 174.296875 166.253906 173.347656 166.253906 C 172.398438 166.253906 171.636719 165.65625 171.636719 164.925781 C 171.636719 164.195312 172.398438 163.609375 173.347656 163.609375 Z M 201.648438 163.609375 C 202.597656 163.609375 203.359375 164.195312 203.359375 164.925781 C 203.359375 165.65625 202.597656 166.253906 201.648438 166.253906 C 200.703125 166.253906 199.925781 165.65625 199.925781 164.925781 C 199.925781 164.195312 200.703125 163.609375 201.648438 163.609375 Z M 160.296875 163.882812 C 163.808594 163.9375 166.679688 165.367188 167.011719 167.394531 C 167.394531 169.707031 164.316406 171.917969 160.136719 172.328125 C 155.953125 172.734375 152.261719 171.183594 151.878906 168.871094 C 151.5 166.558594 154.578125 164.355469 158.757812 163.945312 C 159.28125 163.894531 159.792969 163.875 160.296875 163.882812 Z M 214.703125 163.882812 C 215.207031 163.875 215.71875 163.894531 216.242188 163.945312 C 220.421875 164.355469 223.5 166.558594 223.121094 168.871094 C 222.738281 171.183594 219.046875 172.734375 214.867188 172.328125 C 210.683594 171.917969 207.605469 169.707031 207.984375 167.394531 C 208.320312 165.367188 211.1875 163.9375 214.703125 163.882812 Z M 143.160156 167.625 C 144.109375 167.625 144.882812 168.21875 144.882812 168.953125 C 144.882812 169.683594 144.109375 170.269531 143.160156 170.269531 C 142.214844 170.269531 141.4375 169.683594 141.4375 168.953125 C 141.4375 168.21875 142.214844 167.625 143.160156 167.625 Z M 231.835938 167.625 C 232.785156 167.625 233.558594 168.21875 233.558594 168.953125 C 233.558594 169.683594 232.785156 170.269531 231.835938 170.269531 C 230.886719 170.269531 230.113281 169.683594 230.113281 168.953125 C 230.113281 168.21875 230.886719 167.625 231.835938 167.625 Z M 174.273438 169.101562 C 175.222656 169.101562 175.996094 169.691406 175.996094 170.421875 C 175.996094 171.152344 175.222656 171.746094 174.273438 171.746094 C 173.324219 171.746094 172.5625 171.152344 172.5625 170.421875 C 172.5625 169.691406 173.324219 169.101562 174.273438 169.101562 Z M 200.726562 169.101562 C 201.671875 169.101562 202.4375 169.691406 202.4375 170.421875 C 202.4375 171.152344 201.671875 171.746094 200.726562 171.746094 C 199.777344 171.746094 199.003906 171.152344 199.003906 170.421875 C 199.003906 169.691406 199.777344 169.101562 200.726562 169.101562 Z M 131.496094 170.457031 L 135.164062 172.753906 L 134.097656 176.308594 L 130.421875 174 Z M 243.5 170.457031 L 244.578125 174 L 240.902344 176.308594 L 239.835938 172.753906 Z M 144.421875 172.96875 C 145.371094 172.96875 146.132812 173.5625 146.132812 174.292969 C 146.132812 175.027344 145.371094 175.613281 144.421875 175.613281 C 143.476562 175.613281 142.699219 175.027344 142.699219 174.292969 C 142.699219 173.5625 143.476562 172.96875 144.421875 172.96875 Z M 230.578125 172.96875 C 231.523438 172.96875 232.296875 173.5625 232.296875 174.292969 C 232.296875 175.027344 231.523438 175.613281 230.578125 175.613281 C 229.628906 175.613281 228.863281 175.027344 228.863281 174.292969 C 228.863281 173.5625 229.628906 172.96875 230.578125 172.96875 Z M 187.5 176.15625 C 160.71875 176.15625 139.011719 180.375 139.011719 182.773438 C 139.011719 184.964844 160.71875 188.722656 187.5 188.722656 C 214.28125 188.722656 235.984375 184.964844 235.984375 182.773438 C 235.984375 180.375 214.28125 176.15625 187.5 176.15625 Z M 187.5 176.15625 " fill-opacity="1" fill-rule="nonzero"/></g><g fill="#eeba2b" fill-opacity="1"><g transform="translate(36.128685, 237.384109)"><g><path d="M 4.25 -5.203125 L 4.25 -24.453125 C 4.25 -25.972656 4.113281 -26.957031 3.84375 -27.40625 C 3.582031 -27.851562 3.054688 -28.160156 2.265625 -28.328125 L 0.828125 -28.625 L 0.828125 -29.71875 L 10.546875 -29.71875 L 10.546875 -28.59375 L 8.84375 -28.21875 C 8.238281 -28.09375 7.890625 -27.90625 7.796875 -27.65625 C 7.679688 -27.40625 7.625 -26.785156 7.625 -25.796875 L 7.625 -1.546875 L 16.859375 -1.546875 C 18.078125 -1.546875 18.882812 -2.476562 19.28125 -4.34375 C 19.394531 -4.894531 19.453125 -5.382812 19.453125 -5.8125 L 20.75 -5.8125 L 20.75 0 L 0.953125 0 L 0.953125 -1 L 2.390625 -1.296875 C 3.273438 -1.453125 3.8125 -1.785156 4 -2.296875 C 4.164062 -2.816406 4.25 -3.785156 4.25 -5.203125 Z M 4.25 -5.203125 "/></g></g></g><g fill="#eeba2b" fill-opacity="1"><g transform="translate(69.670429, 237.384109)"><g><path d="M 17.328125 -1.546875 C 18.679688 -1.546875 19.492188 -2.5625 19.765625 -4.59375 L 20.75 -4.59375 L 20.75 0 L 0.875 0 L 0.875 -1.046875 L 2.328125 -1.34375 C 3.222656 -1.53125 3.769531 -1.894531 3.96875 -2.4375 C 4.164062 -2.988281 4.265625 -3.925781 4.265625 -5.25 L 4.265625 -24.484375 C 4.265625 -25.992188 4.140625 -26.976562 3.890625 -27.4375 C 3.640625 -27.894531 3.125 -28.207031 2.34375 -28.375 L 0.875 -28.671875 L 0.875 -29.71875 L 19.3125 -29.71875 L 19.3125 -25.125 L 18.3125 -25.125 C 18.03125 -27.125 17.222656 -28.140625 15.890625 -28.171875 L 7.625 -28.171875 L 7.625 -15.46875 L 13.390625 -15.46875 C 14.023438 -15.46875 14.40625 -15.566406 14.53125 -15.765625 C 14.65625 -15.960938 14.789062 -16.378906 14.9375 -17.015625 L 15.1875 -18.109375 L 16.234375 -18.109375 L 16.234375 -11.3125 L 15.1875 -11.3125 C 14.914062 -12.675781 14.664062 -13.445312 14.4375 -13.625 C 14.21875 -13.8125 13.859375 -13.90625 13.359375 -13.90625 L 7.625 -13.90625 L 7.625 -1.546875 Z M 17.328125 -1.546875 "/></g></g></g><g fill="#eeba2b" fill-opacity="1"><g transform="translate(104.03641, 237.384109)"><g><path d="M 0 0 Z M 0 0 "/></g></g></g><g fill="#eeba2b" fill-opacity="1"><g transform="translate(125.289604, 237.384109)"><g><path d="M 1.28125 -27.96875 C 1.28125 -29.132812 2.117188 -29.71875 3.796875 -29.71875 L 11.171875 -29.71875 L 11.140625 -29.671875 L 11.8125 -29.671875 L 13.515625 -28.09375 L 21.109375 -5.640625 L 31.03125 -29.71875 L 38.21875 -29.71875 L 38.21875 -28.578125 C 36.96875 -28.328125 36.164062 -27.976562 35.8125 -27.53125 C 35.46875 -27.082031 35.296875 -26.515625 35.296875 -25.828125 L 35.296875 -3.828125 C 35.296875 -2.722656 35.390625 -2.066406 35.578125 -1.859375 C 35.773438 -1.648438 36.128906 -1.5 36.640625 -1.40625 L 38.34375 -1.046875 L 38.34375 0 L 28.625 0 L 28.625 -1.03125 L 30.078125 -1.296875 C 30.953125 -1.460938 31.476562 -1.800781 31.65625 -2.3125 C 31.832031 -2.832031 31.921875 -3.796875 31.921875 -5.203125 L 31.921875 -26.375 L 20.9375 0.71875 L 20.03125 0.71875 L 10.796875 -25.625 L 7.421875 -6.09375 L 6.9375 -3.296875 C 6.851562 -2.148438 7.269531 -1.484375 8.1875 -1.296875 L 11.3125 -1.03125 L 11.3125 0 L 1.671875 0 L 1.671875 -1.03125 L 2.59375 -1.28125 C 3.332031 -1.457031 3.828125 -1.738281 4.078125 -2.125 C 4.328125 -2.519531 4.523438 -3.078125 4.671875 -3.796875 C 5.722656 -9.003906 6.625 -13.773438 7.375 -18.109375 L 8.59375 -25.328125 C 8.707031 -26.265625 8.757812 -26.804688 8.75 -26.953125 C 8.644531 -27.566406 8.320312 -27.878906 7.78125 -27.890625 C 7.238281 -27.898438 6.644531 -27.628906 6 -27.078125 C 5.144531 -26.378906 4.300781 -26.03125 3.46875 -26.03125 C 2.632812 -26.03125 2.0625 -26.25 1.75 -26.6875 C 1.4375 -27.132812 1.28125 -27.5625 1.28125 -27.96875 Z M 1.28125 -27.96875 "/></g></g></g><g fill="#eeba2b" fill-opacity="1"><g transform="translate(176.789622, 237.384109)"><g><path d="M 7.625 -30.125 C 9.664062 -30.125 11.242188 -29.78125 12.359375 -29.09375 C 13.910156 -28.113281 15.15625 -26.273438 16.09375 -23.578125 C 19.445312 -13.773438 21.578125 -7.691406 22.484375 -5.328125 C 23.410156 -2.859375 24.550781 -1.488281 25.90625 -1.21875 L 27.03125 -1.03125 L 27.03125 0 L 16.734375 0 L 16.734375 -1.046875 L 18.65625 -1.46875 C 19.4375 -1.675781 19.835938 -2.109375 19.859375 -2.765625 C 19.859375 -3.171875 19.742188 -3.710938 19.515625 -4.390625 L 17.65625 -9.9375 L 7.546875 -9.9375 C 6.128906 -5.457031 5.40625 -3.078125 5.375 -2.796875 C 5.375 -2.066406 5.957031 -1.566406 7.125 -1.296875 L 8.59375 -1.03125 L 8.59375 0 L -0.828125 0 L -0.828125 -1.046875 L 0.578125 -1.296875 C 1.804688 -1.535156 2.878906 -2.976562 3.796875 -5.625 L 9.1875 -21.28125 C 10.175781 -24.164062 10.695312 -25.898438 10.75 -26.484375 C 10.8125 -27.066406 10.617188 -27.359375 10.171875 -27.359375 C 9.628906 -27.359375 9.117188 -27.265625 8.640625 -27.078125 C 8.171875 -26.890625 7.875 -26.796875 7.75 -26.796875 C 6.945312 -26.796875 6.40625 -27.164062 6.125 -27.90625 C 6.039062 -28.15625 6 -28.410156 6 -28.671875 C 6.113281 -29.585938 6.65625 -30.070312 7.625 -30.125 Z M 12.671875 -25.328125 L 8.0625 -11.484375 L 17.1875 -11.484375 Z M 12.671875 -25.328125 "/></g></g></g><g fill="#eeba2b" fill-opacity="1"><g transform="translate(214.702304, 237.384109)"><g><path d="M 8.46875 -28.421875 C 7.488281 -28.421875 6.988281 -28.125 6.96875 -27.53125 C 6.988281 -27.09375 7.128906 -26.664062 7.390625 -26.25 L 14.859375 -14.8125 L 15.90625 -16.53125 C 20.238281 -23.613281 22.410156 -27.34375 22.421875 -27.71875 C 22.429688 -28.101562 22.191406 -28.34375 21.703125 -28.4375 C 21.222656 -28.53125 20.328125 -28.59375 19.015625 -28.625 L 19.015625 -29.71875 L 28.671875 -29.71875 L 28.671875 -28.625 C 28.640625 -28.601562 28.539062 -28.59375 28.375 -28.59375 C 26.726562 -28.507812 25.5625 -28.054688 24.875 -27.234375 C 23.425781 -25.460938 20.890625 -21.460938 17.265625 -15.234375 C 16.523438 -13.972656 16.050781 -13.140625 15.84375 -12.734375 L 15.84375 -3.796875 C 15.84375 -2.710938 15.929688 -2.0625 16.109375 -1.84375 C 16.296875 -1.632812 16.660156 -1.46875 17.203125 -1.34375 L 18.890625 -1.03125 L 18.890625 0 L 9.171875 0 L 9.171875 -0.96875 L 10.609375 -1.28125 C 11.492188 -1.457031 12.023438 -1.800781 12.203125 -2.3125 C 12.378906 -2.832031 12.46875 -3.785156 12.46875 -5.171875 L 12.46875 -12.734375 C 8.25 -19.898438 5.429688 -24.304688 4.015625 -25.953125 C 2.453125 -27.753906 1.046875 -28.644531 -0.203125 -28.625 L -0.203125 -29.71875 L 12.796875 -29.71875 C 14.453125 -29.71875 15.289062 -29.144531 15.3125 -28 C 15.3125 -27.132812 14.878906 -26.535156 14.015625 -26.203125 C 13.710938 -26.097656 13.421875 -26.046875 13.140625 -26.046875 C 12.285156 -26.046875 11.453125 -26.390625 10.640625 -27.078125 C 9.835938 -27.773438 9.320312 -28.171875 9.09375 -28.265625 C 8.875 -28.367188 8.664062 -28.421875 8.46875 -28.421875 Z M 8.46875 -28.421875 "/></g></g></g><g fill="#eeba2b" fill-opacity="1"><g transform="translate(254.513207, 237.384109)"><g><path d="M 4.25 -5.203125 L 4.25 -24.453125 C 4.25 -25.972656 4.113281 -26.957031 3.84375 -27.40625 C 3.582031 -27.851562 3.054688 -28.160156 2.265625 -28.328125 L 0.828125 -28.625 L 0.828125 -29.71875 L 10.546875 -29.71875 L 10.546875 -28.59375 L 8.84375 -28.21875 C 8.238281 -28.09375 7.890625 -27.90625 7.796875 -27.65625 C 7.679688 -27.40625 7.625 -26.785156 7.625 -25.796875 L 7.625 -1.546875 L 16.859375 -1.546875 C 18.078125 -1.546875 18.882812 -2.476562 19.28125 -4.34375 C 19.394531 -4.894531 19.453125 -5.382812 19.453125 -5.8125 L 20.75 -5.8125 L 20.75 0 L 0.953125 0 L 0.953125 -1 L 2.390625 -1.296875 C 3.273438 -1.453125 3.8125 -1.785156 4 -2.296875 C 4.164062 -2.816406 4.25 -3.785156 4.25 -5.203125 Z M 4.25 -5.203125 "/></g></g></g><g fill="#eeba2b" fill-opacity="1"><g transform="translate(288.054946, 237.384109)"><g><path d="M 3.25 -28.375 C 1.582031 -28.375 0.738281 -28.957031 0.71875 -30.125 C 0.71875 -31.007812 1.148438 -31.617188 2.015625 -31.953125 C 2.316406 -32.046875 2.609375 -32.101562 2.890625 -32.125 C 3.773438 -32.125 4.476562 -31.804688 5 -31.171875 C 5.53125 -30.535156 5.898438 -30.132812 6.109375 -29.96875 C 6.316406 -29.800781 6.628906 -29.71875 7.046875 -29.71875 L 15.859375 -29.71875 L 15.859375 -28.625 L 14.15625 -28.25 C 13.5625 -28.113281 13.207031 -27.925781 13.09375 -27.6875 C 12.988281 -27.445312 12.9375 -26.835938 12.9375 -25.859375 L 12.9375 -3.828125 C 12.9375 -2.753906 13.007812 -2.117188 13.15625 -1.921875 C 13.3125 -1.742188 13.644531 -1.59375 14.15625 -1.46875 L 15.859375 -1.09375 L 15.859375 0 L 6.171875 0 L 6.171875 -1.046875 L 7.625 -1.34375 C 8.519531 -1.53125 9.066406 -1.894531 9.265625 -2.4375 C 9.460938 -2.988281 9.5625 -3.925781 9.5625 -5.25 L 9.5625 -25.171875 C 9.53125 -26.921875 9.109375 -27.929688 8.296875 -28.203125 C 8.046875 -28.285156 7.71875 -28.328125 7.3125 -28.328125 Z M 3.25 -28.375 "/></g></g></g><g fill="#eeba2b" fill-opacity="1"><g transform="translate(317.20078, 237.384109)"><g><path d="M 16.984375 -22.359375 C 16.734375 -26.265625 14.867188 -28.226562 11.390625 -28.25 C 9.335938 -28.25 7.929688 -27.632812 7.171875 -26.40625 C 6.816406 -25.832031 6.640625 -25.113281 6.640625 -24.25 C 6.640625 -23.289062 7.15625 -22.34375 8.1875 -21.40625 L 9.015625 -20.6875 L 14.59375 -15.96875 C 17.90625 -13.082031 19.566406 -9.914062 19.578125 -6.46875 C 19.578125 -4.25 18.617188 -2.476562 16.703125 -1.15625 C 14.796875 0.164062 12.617188 0.828125 10.171875 0.828125 C 8.597656 0.828125 7.363281 0.609375 6.46875 0.171875 C 5.570312 -0.253906 4.992188 -0.535156 4.734375 -0.671875 C 4.472656 -0.804688 3.992188 -1.125 3.296875 -1.625 L 2.25 -2.375 L 2.25 -6.84375 C 2.25 -8.3125 2.765625 -9.421875 3.796875 -10.171875 C 4.828125 -10.929688 6.015625 -11.3125 7.359375 -11.3125 C 8.710938 -11.3125 9.835938 -11.097656 10.734375 -10.671875 C 11.617188 -10.210938 12.070312 -9.628906 12.09375 -8.921875 L 12.09375 -8.875 C 12.09375 -8.164062 11.742188 -7.707031 11.046875 -7.5 C 10.878906 -7.445312 10.703125 -7.421875 10.515625 -7.421875 C 9.910156 -7.421875 9.515625 -7.660156 9.328125 -8.140625 C 9.140625 -8.628906 9.035156 -8.890625 9.015625 -8.921875 C 8.679688 -9.378906 8.023438 -9.609375 7.046875 -9.609375 C 5.628906 -9.609375 4.765625 -8.9375 4.453125 -7.59375 C 4.378906 -7.320312 4.34375 -7.070312 4.34375 -6.84375 C 4.34375 -4.332031 5.269531 -2.601562 7.125 -1.65625 C 8 -1.195312 9.03125 -0.96875 10.21875 -0.96875 C 12.925781 -0.96875 14.773438 -1.882812 15.765625 -3.71875 C 16.160156 -4.46875 16.359375 -5.25 16.359375 -6.0625 C 16.359375 -7.46875 15.707031 -9.078125 14.40625 -10.890625 C 13.757812 -11.804688 13.085938 -12.546875 12.390625 -13.109375 L 7.8125 -16.8125 C 5.75 -18.507812 4.476562 -19.867188 4 -20.890625 C 3.53125 -21.921875 3.296875 -22.867188 3.296875 -23.734375 C 3.296875 -25.734375 4.109375 -27.273438 5.734375 -28.359375 C 7.367188 -29.453125 9.296875 -30 11.515625 -30 C 14.066406 -30 16.457031 -29.304688 18.6875 -27.921875 L 18.65625 -22.359375 Z M 16.984375 -22.359375 "/></g></g></g><path fill="#eeba2b" d="M 180.433594 197.023438 L 180.433594 196.359375 L 140.199219 195.921875 L 180.433594 195.488281 L 180.433594 194.824219 L 78.804688 195.921875 Z M 180.433594 197.023438 " fill-opacity="1" fill-rule="nonzero"/><g clip-path="url(#b0b68310eb)"><path fill="#eeba2b" d="M 194.539062 194.824219 L 194.539062 195.488281 L 234.777344 195.921875 L 194.539062 196.359375 L 194.539062 197.023438 L 296.171875 195.921875 Z M 194.539062 194.824219 " fill-opacity="1" fill-rule="nonzero"/></g><g clip-path="url(#10c7f33024)"><path fill="#eeba2b" d="M 192.300781 195.484375 C 192.195312 195.332031 192.0625 195.203125 191.910156 195.101562 C 191.816406 195.035156 191.710938 194.976562 191.609375 194.921875 C 191.503906 194.871094 191.398438 194.824219 191.285156 194.78125 C 191.304688 194.714844 191.3125 194.652344 191.3125 194.585938 C 191.3125 194.296875 191.140625 194.011719 190.796875 193.765625 C 190.40625 194.671875 189.238281 195.4375 187.65625 195.875 L 190.980469 192.421875 L 187.53125 195.746094 C 187.964844 194.167969 188.726562 193 189.632812 192.613281 C 189.386719 192.265625 189.101562 192.09375 188.8125 192.09375 C 188.746094 192.09375 188.683594 192.105469 188.617188 192.121094 C 188.574219 192.011719 188.527344 191.902344 188.476562 191.800781 C 188.382812 191.609375 188.269531 191.429688 188.121094 191.285156 C 188.011719 191.167969 187.875 191.066406 187.722656 191.007812 C 187.570312 190.957031 187.394531 190.953125 187.242188 191.007812 C 187.171875 191.035156 187.105469 191.074219 187.042969 191.113281 C 186.886719 191.214844 186.761719 191.351562 186.660156 191.503906 C 186.59375 191.597656 186.535156 191.699219 186.480469 191.804688 C 186.429688 191.90625 186.382812 192.015625 186.339844 192.125 C 186.273438 192.109375 186.210938 192.101562 186.144531 192.101562 C 185.855469 192.101562 185.570312 192.269531 185.324219 192.617188 C 186.234375 193.007812 187 194.183594 187.4375 195.769531 L 183.96875 192.425781 L 187.289062 195.875 C 185.71875 195.4375 184.554688 194.675781 184.164062 193.769531 C 183.820312 194.015625 183.648438 194.304688 183.648438 194.589844 C 183.648438 194.65625 183.65625 194.71875 183.675781 194.789062 C 183.5625 194.828125 183.457031 194.878906 183.351562 194.925781 C 183.164062 195.019531 182.984375 195.132812 182.835938 195.28125 C 182.71875 195.394531 182.621094 195.527344 182.5625 195.679688 C 182.507812 195.832031 182.503906 196.007812 182.5625 196.160156 C 182.589844 196.230469 182.625 196.300781 182.667969 196.363281 C 182.769531 196.515625 182.902344 196.640625 183.058594 196.742188 C 183.152344 196.8125 183.253906 196.871094 183.355469 196.921875 C 183.460938 196.972656 183.566406 197.023438 183.679688 197.0625 C 183.664062 197.128906 183.652344 197.191406 183.652344 197.261719 C 183.652344 197.546875 183.824219 197.835938 184.167969 198.082031 C 184.558594 197.175781 185.726562 196.410156 187.304688 195.976562 L 183.972656 199.4375 L 187.4375 196.097656 C 187 197.679688 186.238281 198.847656 185.328125 199.238281 C 185.574219 199.585938 185.859375 199.753906 186.148438 199.753906 C 186.214844 199.753906 186.277344 199.746094 186.34375 199.726562 C 186.386719 199.839844 186.433594 199.949219 186.484375 200.050781 C 186.539062 200.152344 186.597656 200.257812 186.664062 200.351562 C 186.765625 200.5 186.894531 200.636719 187.046875 200.742188 C 187.109375 200.78125 187.175781 200.816406 187.246094 200.84375 C 187.398438 200.898438 187.574219 200.898438 187.726562 200.84375 C 187.878906 200.792969 188.015625 200.6875 188.125 200.570312 C 188.269531 200.417969 188.386719 200.238281 188.480469 200.054688 C 188.53125 199.953125 188.582031 199.84375 188.621094 199.730469 C 188.6875 199.75 188.75 199.757812 188.816406 199.757812 C 189.105469 199.757812 189.390625 199.589844 189.640625 199.242188 C 188.734375 198.855469 187.972656 197.695312 187.535156 196.121094 L 190.980469 199.441406 L 187.636719 195.972656 C 189.226562 196.40625 190.402344 197.175781 190.792969 198.085938 C 191.136719 197.839844 191.308594 197.550781 191.308594 197.265625 C 191.308594 197.195312 191.300781 197.132812 191.28125 197.066406 C 191.394531 197.027344 191.5 196.976562 191.605469 196.929688 C 191.792969 196.832031 191.972656 196.722656 192.121094 196.574219 C 192.238281 196.460938 192.335938 196.328125 192.394531 196.175781 C 192.449219 196.019531 192.453125 195.847656 192.394531 195.695312 C 192.367188 195.621094 192.332031 195.554688 192.289062 195.492188 Z M 192.300781 195.484375 " fill-opacity="1" fill-rule="nonzero"/></g><path fill="#eeba2b" d="M 180.433594 253.242188 L 180.433594 252.578125 L 140.199219 252.144531 L 180.433594 251.707031 L 180.433594 251.042969 L 78.804688 252.144531 Z M 180.433594 253.242188 " fill-opacity="1" fill-rule="nonzero"/><g clip-path="url(#a360e86fef)"><path fill="#eeba2b" d="M 194.539062 251.042969 L 194.539062 251.707031 L 234.777344 252.144531 L 194.539062 252.578125 L 194.539062 253.242188 L 296.171875 252.144531 Z M 194.539062 251.042969 " fill-opacity="1" fill-rule="nonzero"/></g><g clip-path="url(#576ed24e30)"><path fill="#eeba2b" d="M 192.300781 251.703125 C 192.195312 251.550781 192.0625 251.425781 191.910156 251.320312 C 191.816406 251.253906 191.710938 251.195312 191.609375 251.140625 C 191.503906 251.09375 191.398438 251.042969 191.285156 251.003906 C 191.304688 250.9375 191.3125 250.875 191.3125 250.804688 C 191.3125 250.519531 191.140625 250.230469 190.796875 249.984375 C 190.40625 250.890625 189.238281 251.660156 187.65625 252.09375 L 190.980469 248.644531 L 187.53125 251.96875 C 187.964844 250.386719 188.726562 249.222656 189.632812 248.832031 C 189.386719 248.484375 189.101562 248.316406 188.8125 248.316406 C 188.746094 248.316406 188.683594 248.324219 188.617188 248.34375 C 188.574219 248.230469 188.527344 248.121094 188.476562 248.019531 C 188.382812 247.832031 188.269531 247.652344 188.121094 247.503906 C 188.011719 247.386719 187.875 247.289062 187.722656 247.230469 C 187.570312 247.175781 187.394531 247.171875 187.242188 247.230469 C 187.171875 247.257812 187.105469 247.292969 187.042969 247.332031 C 186.886719 247.4375 186.761719 247.570312 186.660156 247.722656 C 186.59375 247.816406 186.535156 247.921875 186.480469 248.023438 C 186.429688 248.128906 186.382812 248.234375 186.339844 248.347656 C 186.273438 248.328125 186.210938 248.320312 186.144531 248.320312 C 185.855469 248.320312 185.570312 248.492188 185.324219 248.835938 C 186.234375 249.226562 187 250.402344 187.4375 251.992188 L 183.96875 248.648438 L 187.289062 252.09375 C 185.71875 251.660156 184.554688 250.894531 184.164062 249.988281 C 183.820312 250.234375 183.648438 250.523438 183.648438 250.808594 C 183.648438 250.878906 183.65625 250.941406 183.675781 251.007812 C 183.5625 251.046875 183.457031 251.097656 183.351562 251.148438 C 183.164062 251.242188 182.984375 251.351562 182.835938 251.5 C 182.71875 251.613281 182.621094 251.746094 182.5625 251.902344 C 182.507812 252.054688 182.503906 252.226562 182.5625 252.378906 C 182.589844 252.453125 182.625 252.519531 182.667969 252.582031 C 182.769531 252.734375 182.902344 252.859375 183.058594 252.964844 C 183.152344 253.03125 183.253906 253.089844 183.355469 253.144531 C 183.460938 253.191406 183.566406 253.242188 183.679688 253.28125 C 183.664062 253.351562 183.652344 253.414062 183.652344 253.480469 C 183.652344 253.765625 183.824219 254.054688 184.167969 254.300781 C 184.558594 253.394531 185.726562 252.632812 187.304688 252.195312 L 183.972656 255.65625 L 187.4375 252.316406 C 187 253.902344 186.238281 255.066406 185.328125 255.457031 C 185.574219 255.804688 185.859375 255.976562 186.148438 255.976562 C 186.214844 255.976562 186.277344 255.964844 186.34375 255.949219 C 186.386719 256.058594 186.433594 256.167969 186.484375 256.269531 C 186.539062 256.375 186.597656 256.476562 186.664062 256.570312 C 186.765625 256.71875 186.894531 256.859375 187.046875 256.960938 C 187.109375 257.003906 187.175781 257.039062 187.246094 257.066406 C 187.398438 257.117188 187.574219 257.117188 187.726562 257.066406 C 187.878906 257.011719 188.015625 256.90625 188.125 256.792969 C 188.269531 256.640625 188.386719 256.460938 188.480469 256.273438 C 188.53125 256.171875 188.582031 256.0625 188.621094 255.953125 C 188.6875 255.96875 188.75 255.980469 188.816406 255.980469 C 189.105469 255.980469 189.390625 255.808594 189.640625 255.464844 C 188.734375 255.078125 187.972656 253.914062 187.535156 252.339844 L 190.980469 255.660156 L 187.636719 252.191406 C 189.226562 252.628906 190.402344 253.394531 190.792969 254.304688 C 191.136719 254.058594 191.308594 253.773438 191.308594 253.484375 C 191.308594 253.417969 191.300781 253.355469 191.28125 253.285156 C 191.394531 253.246094 191.5 253.199219 191.605469 253.148438 C 191.792969 253.054688 191.972656 252.941406 192.121094 252.792969 C 192.238281 252.679688 192.335938 252.546875 192.394531 252.394531 C 192.449219 252.242188 192.453125 252.066406 192.394531 251.914062 C 192.367188 251.84375 192.332031 251.773438 192.289062 251.710938 Z M 192.300781 251.703125 " fill-opacity="1" fill-rule="nonzero"/></g><g fill="#eeba2b" fill-opacity="1"><g transform="translate(149.670067, 271.850389)"><g><path d="M 1.28125 -6.1875 C 1.28125 -5.238281 1.488281 -4.765625 1.90625 -4.765625 C 1.988281 -4.765625 2.109375 -4.832031 2.265625 -4.96875 C 2.523438 -5.164062 2.742188 -5.269531 2.921875 -5.28125 C 3.222656 -5.28125 3.390625 -5.140625 3.421875 -4.859375 C 3.429688 -4.671875 3.34375 -4.523438 3.15625 -4.421875 C 3.050781 -4.367188 2.945312 -4.34375 2.84375 -4.34375 C 2.3125 -4.34375 1.929688 -4.378906 1.703125 -4.453125 C 1.117188 -4.648438 0.71875 -5.039062 0.5 -5.625 C 0.40625 -5.90625 0.359375 -6.195312 0.359375 -6.5 C 0.359375 -7.382812 0.769531 -7.941406 1.59375 -8.171875 C 1.84375 -8.242188 2.117188 -8.28125 2.421875 -8.28125 L 7.703125 -8.28125 C 8.210938 -8.28125 8.539062 -8.382812 8.6875 -8.59375 C 8.789062 -8.75 8.84375 -8.972656 8.84375 -9.265625 L 9.125 -9.265625 C 9.3125 -8.660156 9.3125 -8.257812 9.125 -8.0625 C 8.9375 -7.875 8.628906 -7.765625 8.203125 -7.734375 L 5.5625 -7.734375 L 5.5625 -1.453125 C 5.5625 -1.023438 5.59375 -0.75 5.65625 -0.625 C 5.71875 -0.5 5.859375 -0.410156 6.078125 -0.359375 L 6.484375 -0.28125 L 6.484375 0 L 3.78125 0 L 3.78125 -0.296875 L 4.265625 -0.390625 C 4.429688 -0.429688 4.535156 -0.488281 4.578125 -0.5625 C 4.617188 -0.632812 4.640625 -0.800781 4.640625 -1.0625 L 4.640625 -7.734375 L 2.34375 -7.734375 C 1.800781 -7.734375 1.46875 -7.414062 1.34375 -6.78125 C 1.300781 -6.59375 1.28125 -6.394531 1.28125 -6.1875 Z M 1.28125 -6.1875 "/></g></g></g><g fill="#eeba2b" fill-opacity="1"><g transform="translate(162.83151, 271.850389)"><g><path d="M 2.125 -8.390625 C 2.695312 -8.390625 3.132812 -8.296875 3.4375 -8.109375 C 3.875 -7.835938 4.222656 -7.320312 4.484375 -6.5625 C 5.421875 -3.832031 6.015625 -2.140625 6.265625 -1.484375 C 6.523438 -0.796875 6.84375 -0.414062 7.21875 -0.34375 L 7.53125 -0.28125 L 7.53125 0 L 4.65625 0 L 4.65625 -0.296875 L 5.203125 -0.40625 C 5.421875 -0.46875 5.53125 -0.585938 5.53125 -0.765625 C 5.53125 -0.878906 5.5 -1.03125 5.4375 -1.21875 L 4.921875 -2.765625 L 2.09375 -2.765625 C 1.707031 -1.515625 1.507812 -0.851562 1.5 -0.78125 C 1.5 -0.570312 1.660156 -0.429688 1.984375 -0.359375 L 2.390625 -0.28125 L 2.390625 0 L -0.234375 0 L -0.234375 -0.296875 L 0.15625 -0.359375 C 0.5 -0.421875 0.800781 -0.820312 1.0625 -1.5625 L 2.5625 -5.921875 C 2.832031 -6.722656 2.972656 -7.207031 2.984375 -7.375 C 3.003906 -7.539062 2.953125 -7.625 2.828125 -7.625 C 2.679688 -7.625 2.539062 -7.597656 2.40625 -7.546875 C 2.28125 -7.492188 2.195312 -7.46875 2.15625 -7.46875 C 1.9375 -7.46875 1.785156 -7.566406 1.703125 -7.765625 C 1.679688 -7.835938 1.671875 -7.910156 1.671875 -7.984375 C 1.703125 -8.242188 1.851562 -8.378906 2.125 -8.390625 Z M 3.53125 -7.0625 L 2.25 -3.203125 L 4.78125 -3.203125 Z M 3.53125 -7.0625 "/></g></g></g><g fill="#eeba2b" fill-opacity="1"><g transform="translate(173.396697, 271.850389)"><g><path d="M 0.34375 -7.984375 C 0.34375 -8.253906 0.507812 -8.390625 0.84375 -8.390625 C 1.75 -8.390625 2.394531 -8.164062 2.78125 -7.71875 L 7.25 -1.609375 L 7.25 -6.8125 C 7.25 -7.226562 7.210938 -7.5 7.140625 -7.625 C 7.066406 -7.757812 6.921875 -7.847656 6.703125 -7.890625 L 6.296875 -7.96875 L 6.296875 -8.28125 L 8.65625 -8.28125 L 8.65625 -7.953125 L 8.1875 -7.859375 C 8.03125 -7.828125 7.929688 -7.773438 7.890625 -7.703125 C 7.859375 -7.640625 7.84375 -7.46875 7.84375 -7.1875 L 7.84375 0.203125 L 7.5625 0.203125 L 2.65625 -6.421875 L 2.640625 -1.0625 C 2.640625 -0.75 2.664062 -0.5625 2.71875 -0.5 C 2.769531 -0.445312 2.867188 -0.40625 3.015625 -0.375 L 3.5 -0.28125 L 3.5 0 L 1.140625 0 L 1.140625 -0.265625 L 1.546875 -0.359375 C 1.796875 -0.410156 1.941406 -0.503906 1.984375 -0.640625 C 2.035156 -0.773438 2.0625 -1.039062 2.0625 -1.4375 L 2.0625 -6.296875 C 2.0625 -7.265625 1.929688 -7.753906 1.671875 -7.765625 C 1.546875 -7.765625 1.378906 -7.710938 1.171875 -7.609375 C 0.972656 -7.515625 0.859375 -7.46875 0.828125 -7.46875 C 0.609375 -7.46875 0.457031 -7.566406 0.375 -7.765625 C 0.351562 -7.835938 0.34375 -7.910156 0.34375 -7.984375 Z M 0.34375 -7.984375 "/></g></g></g><g fill="#eeba2b" fill-opacity="1"><g transform="translate(185.729843, 271.850389)"><g><path d="M 5.984375 2.34375 C 6.398438 2.34375 6.609375 1.867188 6.609375 0.921875 L 6.609375 -0.125 C 6.015625 0.113281 5.394531 0.234375 4.75 0.234375 C 3.28125 0.234375 2.15625 -0.257812 1.375 -1.25 C 0.738281 -2.0625 0.414062 -3.039062 0.40625 -4.1875 C 0.40625 -5.332031 0.738281 -6.273438 1.40625 -7.015625 C 2.21875 -7.898438 3.253906 -8.347656 4.515625 -8.359375 C 5.546875 -8.359375 6.453125 -8.109375 7.234375 -7.609375 C 7.359375 -7.523438 7.457031 -7.445312 7.53125 -7.375 L 7.53125 -5.796875 L 7.1875 -5.796875 C 7.164062 -6.035156 7.066406 -6.3125 6.890625 -6.625 C 6.421875 -7.476562 5.644531 -7.910156 4.5625 -7.921875 C 3.6875 -7.921875 2.945312 -7.546875 2.34375 -6.796875 C 1.726562 -6.023438 1.421875 -5.175781 1.421875 -4.25 C 1.421875 -3.539062 1.566406 -2.847656 1.859375 -2.171875 C 2.441406 -0.859375 3.414062 -0.203125 4.78125 -0.203125 C 5.582031 -0.203125 6.195312 -0.429688 6.625 -0.890625 L 6.625 -1.8125 C 6.625 -2.238281 6.585938 -2.515625 6.515625 -2.640625 C 6.453125 -2.765625 6.3125 -2.851562 6.09375 -2.90625 L 5.671875 -2.984375 L 5.671875 -3.28125 L 8.375 -3.28125 L 8.375 -2.96875 L 7.90625 -2.859375 C 7.738281 -2.828125 7.640625 -2.773438 7.609375 -2.703125 C 7.578125 -2.640625 7.5625 -2.144531 7.5625 -1.21875 L 7.5625 0.15625 C 7.550781 1.519531 7.09375 2.351562 6.1875 2.65625 C 5.957031 2.726562 5.578125 2.765625 5.046875 2.765625 C 4.828125 2.765625 4.675781 2.703125 4.59375 2.578125 C 4.507812 2.453125 4.472656 2.34375 4.484375 2.25 C 4.503906 1.96875 4.664062 1.828125 4.96875 1.828125 C 5.164062 1.828125 5.363281 1.910156 5.5625 2.078125 C 5.769531 2.253906 5.910156 2.34375 5.984375 2.34375 Z M 5.984375 2.34375 "/></g></g></g><g fill="#eeba2b" fill-opacity="1"><g transform="translate(197.687122, 271.850389)"><g><path d="M 0.90625 -7.90625 C 0.4375 -7.90625 0.203125 -8.066406 0.203125 -8.390625 C 0.203125 -8.640625 0.320312 -8.8125 0.5625 -8.90625 C 0.644531 -8.925781 0.726562 -8.941406 0.8125 -8.953125 C 1.050781 -8.953125 1.242188 -8.863281 1.390625 -8.6875 C 1.535156 -8.507812 1.632812 -8.394531 1.6875 -8.34375 C 1.75 -8.300781 1.84375 -8.28125 1.96875 -8.28125 L 4.421875 -8.28125 L 4.421875 -7.96875 L 3.9375 -7.875 C 3.769531 -7.832031 3.671875 -7.773438 3.640625 -7.703125 C 3.617188 -7.640625 3.609375 -7.472656 3.609375 -7.203125 L 3.609375 -1.0625 C 3.609375 -0.769531 3.628906 -0.59375 3.671875 -0.53125 C 3.710938 -0.476562 3.800781 -0.4375 3.9375 -0.40625 L 4.421875 -0.3125 L 4.421875 0 L 1.71875 0 L 1.71875 -0.296875 L 2.125 -0.375 C 2.375 -0.425781 2.523438 -0.523438 2.578125 -0.671875 C 2.640625 -0.828125 2.671875 -1.09375 2.671875 -1.46875 L 2.671875 -7.015625 C 2.660156 -7.503906 2.539062 -7.785156 2.3125 -7.859375 C 2.238281 -7.878906 2.144531 -7.890625 2.03125 -7.890625 Z M 0.90625 -7.90625 "/></g></g></g><g fill="#eeba2b" fill-opacity="1"><g transform="translate(205.809182, 271.850389)"><g><path d="M 4.828125 -0.4375 C 5.203125 -0.4375 5.425781 -0.71875 5.5 -1.28125 L 5.78125 -1.28125 L 5.78125 0 L 0.25 0 L 0.25 -0.296875 L 0.640625 -0.375 C 0.890625 -0.425781 1.039062 -0.523438 1.09375 -0.671875 C 1.15625 -0.828125 1.1875 -1.09375 1.1875 -1.46875 L 1.1875 -6.8125 C 1.1875 -7.238281 1.148438 -7.515625 1.078125 -7.640625 C 1.015625 -7.765625 0.875 -7.851562 0.65625 -7.90625 L 0.25 -7.984375 L 0.25 -8.28125 L 5.375 -8.28125 L 5.375 -7 L 5.09375 -7 C 5.019531 -7.550781 4.796875 -7.832031 4.421875 -7.84375 L 2.125 -7.84375 L 2.125 -4.3125 L 3.734375 -4.3125 C 3.910156 -4.3125 4.015625 -4.335938 4.046875 -4.390625 C 4.078125 -4.441406 4.113281 -4.554688 4.15625 -4.734375 L 4.234375 -5.046875 L 4.515625 -5.046875 L 4.515625 -3.15625 L 4.234375 -3.15625 C 4.160156 -3.53125 4.09375 -3.742188 4.03125 -3.796875 C 3.96875 -3.847656 3.863281 -3.875 3.71875 -3.875 L 2.125 -3.875 L 2.125 -0.4375 Z M 4.828125 -0.4375 "/></g></g></g><g fill="#eeba2b" fill-opacity="1"><g transform="translate(215.385984, 271.850389)"><g><path d="M 0.203125 -7.78125 C 0.203125 -8.101562 0.4375 -8.269531 0.90625 -8.28125 L 5.5625 -8.28125 C 5.988281 -8.28125 6.40625 -8.179688 6.8125 -7.984375 C 7.53125 -7.617188 7.894531 -7.019531 7.90625 -6.1875 C 7.90625 -5.5625 7.625 -5.023438 7.0625 -4.578125 C 6.820312 -4.390625 6.554688 -4.242188 6.265625 -4.140625 C 6.660156 -3.898438 7.007812 -3.519531 7.3125 -3 C 7.882812 -2.007812 8.3125 -1.316406 8.59375 -0.921875 C 8.882812 -0.523438 9.171875 -0.285156 9.453125 -0.203125 L 9.453125 0.171875 C 8.703125 0.234375 8.117188 0.0859375 7.703125 -0.265625 C 7.285156 -0.617188 6.863281 -1.21875 6.4375 -2.0625 C 6.019531 -2.90625 5.753906 -3.421875 5.640625 -3.609375 C 5.523438 -3.796875 5.414062 -3.890625 5.3125 -3.890625 C 5.207031 -3.898438 5.117188 -3.820312 5.046875 -3.65625 C 4.984375 -3.488281 4.929688 -3.382812 4.890625 -3.34375 C 4.816406 -3.28125 4.703125 -3.242188 4.546875 -3.234375 C 4.398438 -3.234375 4.285156 -3.300781 4.203125 -3.4375 C 4.117188 -3.570312 4.078125 -3.695312 4.078125 -3.8125 C 4.078125 -4.207031 4.410156 -4.40625 5.078125 -4.40625 C 5.210938 -4.40625 5.328125 -4.398438 5.421875 -4.390625 C 6.015625 -4.421875 6.429688 -4.71875 6.671875 -5.28125 C 6.765625 -5.53125 6.8125 -5.804688 6.8125 -6.109375 C 6.8125 -6.816406 6.554688 -7.316406 6.046875 -7.609375 C 5.765625 -7.765625 5.441406 -7.84375 5.078125 -7.84375 L 3.859375 -7.84375 L 3.859375 -1.046875 C 3.859375 -0.742188 3.882812 -0.5625 3.9375 -0.5 C 3.988281 -0.445312 4.085938 -0.40625 4.234375 -0.375 L 4.703125 -0.28125 L 4.703125 0 L 2 0 L 2 -0.265625 L 2.40625 -0.359375 C 2.644531 -0.410156 2.789062 -0.503906 2.84375 -0.640625 C 2.894531 -0.773438 2.921875 -1.039062 2.921875 -1.4375 L 2.921875 -6.953125 C 2.828125 -7.554688 2.578125 -7.867188 2.171875 -7.890625 C 2.035156 -7.890625 1.851562 -7.800781 1.625 -7.625 C 1.3125 -7.375 1.039062 -7.242188 0.8125 -7.234375 C 0.59375 -7.234375 0.4375 -7.296875 0.34375 -7.421875 C 0.25 -7.546875 0.203125 -7.664062 0.203125 -7.78125 Z M 0.203125 -7.78125 "/></g></g></g></svg>